<mxfile host="app.diagrams.net" agent="Mozilla/5.0 (X11; Linux x86_64; rv:109.0) Gecko/20100101 Firefox/115.0" version="24.7.12">
  <diagram name="Page-1" id="ncg5y3mjT4usLkhWNuks">
    <mxGraphModel dx="1434" dy="791" grid="1" gridSize="10" guides="1" tooltips="1" connect="1" arrows="1" fold="1" page="1" pageScale="1" pageWidth="850" pageHeight="1100" math="0" shadow="0">
      <root>
        <mxCell id="0" />
        <mxCell id="1" parent="0" />
        <mxCell id="dSjK24xe5P5FXWsLck4a-10" value="" style="edgeStyle=orthogonalEdgeStyle;rounded=0;orthogonalLoop=1;jettySize=auto;html=1;" parent="1" source="dSjK24xe5P5FXWsLck4a-8" target="dSjK24xe5P5FXWsLck4a-9" edge="1">
          <mxGeometry relative="1" as="geometry" />
        </mxCell>
        <mxCell id="dSjK24xe5P5FXWsLck4a-52" value="це" style="edgeLabel;html=1;align=center;verticalAlign=middle;resizable=0;points=[];" parent="dSjK24xe5P5FXWsLck4a-10" vertex="1" connectable="0">
          <mxGeometry x="-0.0714" y="3" relative="1" as="geometry">
            <mxPoint as="offset" />
          </mxGeometry>
        </mxCell>
        <mxCell id="dSjK24xe5P5FXWsLck4a-32" style="edgeStyle=orthogonalEdgeStyle;rounded=0;orthogonalLoop=1;jettySize=auto;html=1;exitX=1;exitY=0.5;exitDx=0;exitDy=0;entryX=0;entryY=0.5;entryDx=0;entryDy=0;" parent="1" source="dSjK24xe5P5FXWsLck4a-8" target="dSjK24xe5P5FXWsLck4a-22" edge="1">
          <mxGeometry relative="1" as="geometry" />
        </mxCell>
        <mxCell id="dSjK24xe5P5FXWsLck4a-51" value="переваги" style="edgeLabel;html=1;align=center;verticalAlign=middle;resizable=0;points=[];" parent="dSjK24xe5P5FXWsLck4a-32" vertex="1" connectable="0">
          <mxGeometry x="-0.4783" y="1" relative="1" as="geometry">
            <mxPoint as="offset" />
          </mxGeometry>
        </mxCell>
        <mxCell id="dSjK24xe5P5FXWsLck4a-49" style="edgeStyle=orthogonalEdgeStyle;rounded=0;orthogonalLoop=1;jettySize=auto;html=1;exitX=0.5;exitY=1;exitDx=0;exitDy=0;entryX=0.5;entryY=0;entryDx=0;entryDy=0;" parent="1" source="dSjK24xe5P5FXWsLck4a-8" target="dSjK24xe5P5FXWsLck4a-36" edge="1">
          <mxGeometry relative="1" as="geometry" />
        </mxCell>
        <mxCell id="dSjK24xe5P5FXWsLck4a-50" value="проблеми" style="edgeLabel;html=1;align=center;verticalAlign=middle;resizable=0;points=[];" parent="dSjK24xe5P5FXWsLck4a-49" vertex="1" connectable="0">
          <mxGeometry x="0.1704" y="2" relative="1" as="geometry">
            <mxPoint as="offset" />
          </mxGeometry>
        </mxCell>
        <mxCell id="dSjK24xe5P5FXWsLck4a-8" value="смарт-технології" style="ellipse;whiteSpace=wrap;html=1;aspect=fixed;" parent="1" vertex="1">
          <mxGeometry x="410" y="160" width="80" height="80" as="geometry" />
        </mxCell>
        <mxCell id="dSjK24xe5P5FXWsLck4a-9" value="це технології, які використовують штучний інтелект, машинне навчання та &#xa;аналіз великих даних, щоб забезпечити когнітивну обізнаність об’єктів" style="whiteSpace=wrap;html=1;fillColor=#f8cecc;strokeColor=#b85450;" parent="1" vertex="1">
          <mxGeometry x="220" y="120" width="120" height="160" as="geometry" />
        </mxCell>
        <mxCell id="dSjK24xe5P5FXWsLck4a-13" value="" style="edgeStyle=orthogonalEdgeStyle;rounded=0;orthogonalLoop=1;jettySize=auto;html=1;" parent="1" source="dSjK24xe5P5FXWsLck4a-11" target="dSjK24xe5P5FXWsLck4a-12" edge="1">
          <mxGeometry relative="1" as="geometry" />
        </mxCell>
        <mxCell id="dSjK24xe5P5FXWsLck4a-18" value="&lt;div&gt;розумні міста,&lt;/div&gt;&lt;div&gt;&amp;nbsp;розумні будинки&amp;nbsp;&lt;/div&gt;&lt;div&gt;&amp;nbsp;розумні фабрики.&lt;/div&gt;" style="edgeLabel;html=1;align=center;verticalAlign=middle;resizable=0;points=[];" parent="dSjK24xe5P5FXWsLck4a-13" vertex="1" connectable="0">
          <mxGeometry x="0.1091" y="1" relative="1" as="geometry">
            <mxPoint as="offset" />
          </mxGeometry>
        </mxCell>
        <mxCell id="dSjK24xe5P5FXWsLck4a-15" value="" style="edgeStyle=orthogonalEdgeStyle;rounded=0;orthogonalLoop=1;jettySize=auto;html=1;" parent="1" source="dSjK24xe5P5FXWsLck4a-11" target="dSjK24xe5P5FXWsLck4a-14" edge="1">
          <mxGeometry relative="1" as="geometry" />
        </mxCell>
        <mxCell id="dSjK24xe5P5FXWsLck4a-19" value="&lt;div&gt;Розумні камери безпеки&lt;/div&gt;&lt;div&gt;розумні лампочки&lt;/div&gt;&lt;div&gt;&amp;nbsp;смартфони&lt;/div&gt;" style="edgeLabel;html=1;align=center;verticalAlign=middle;resizable=0;points=[];" parent="dSjK24xe5P5FXWsLck4a-15" vertex="1" connectable="0">
          <mxGeometry x="-0.3111" y="-2" relative="1" as="geometry">
            <mxPoint as="offset" />
          </mxGeometry>
        </mxCell>
        <mxCell id="dSjK24xe5P5FXWsLck4a-17" value="" style="edgeStyle=orthogonalEdgeStyle;rounded=0;orthogonalLoop=1;jettySize=auto;html=1;" parent="1" source="dSjK24xe5P5FXWsLck4a-11" target="dSjK24xe5P5FXWsLck4a-16" edge="1">
          <mxGeometry relative="1" as="geometry" />
        </mxCell>
        <mxCell id="dSjK24xe5P5FXWsLck4a-20" value=" розумні кавоварки," style="edgeLabel;html=1;align=center;verticalAlign=middle;resizable=0;points=[];" parent="dSjK24xe5P5FXWsLck4a-17" vertex="1" connectable="0">
          <mxGeometry x="-0.0545" y="3" relative="1" as="geometry">
            <mxPoint as="offset" />
          </mxGeometry>
        </mxCell>
        <mxCell id="dSjK24xe5P5FXWsLck4a-11" value="Приклади" style="ellipse;whiteSpace=wrap;html=1;aspect=fixed;" parent="1" vertex="1">
          <mxGeometry x="530" y="580" width="80" height="80" as="geometry" />
        </mxCell>
        <mxCell id="dSjK24xe5P5FXWsLck4a-12" value="&lt;h3 class=&quot;wp-block-heading&quot;&gt;Пристрої Інтернету речей (IoT)&lt;/h3&gt;" style="rounded=1;whiteSpace=wrap;html=1;" parent="1" vertex="1">
          <mxGeometry x="300" y="590" width="120" height="60" as="geometry" />
        </mxCell>
        <mxCell id="dSjK24xe5P5FXWsLck4a-14" value="&lt;h3 class=&quot;wp-block-heading&quot;&gt;Розумні підключені пристрої&lt;/h3&gt;" style="rounded=1;whiteSpace=wrap;html=1;" parent="1" vertex="1">
          <mxGeometry x="510" y="750" width="120" height="60" as="geometry" />
        </mxCell>
        <mxCell id="dSjK24xe5P5FXWsLck4a-16" value="&lt;h3 class=&quot;wp-block-heading&quot;&gt;Розумні пристрої&lt;/h3&gt;" style="rounded=1;whiteSpace=wrap;html=1;" parent="1" vertex="1">
          <mxGeometry x="720" y="590" width="120" height="60" as="geometry" />
        </mxCell>
        <mxCell id="dSjK24xe5P5FXWsLck4a-22" value="List" style="swimlane;fontStyle=0;childLayout=stackLayout;horizontal=1;startSize=30;horizontalStack=0;resizeParent=1;resizeParentMax=0;resizeLast=0;collapsible=1;marginBottom=0;whiteSpace=wrap;html=1;" parent="1" vertex="1">
          <mxGeometry x="560" y="130" width="140" height="230" as="geometry" />
        </mxCell>
        <mxCell id="dSjK24xe5P5FXWsLck4a-23" value="&lt;h3 class=&quot;wp-block-heading&quot;&gt;Зручність&lt;/h3&gt;" style="text;strokeColor=none;fillColor=none;align=left;verticalAlign=middle;spacingLeft=4;spacingRight=4;overflow=hidden;points=[[0,0.5],[1,0.5]];portConstraint=eastwest;rotatable=0;whiteSpace=wrap;html=1;" parent="dSjK24xe5P5FXWsLck4a-22" vertex="1">
          <mxGeometry y="30" width="140" height="40" as="geometry" />
        </mxCell>
        <mxCell id="dSjK24xe5P5FXWsLck4a-24" value="&lt;h3 class=&quot;wp-block-heading&quot;&gt;забезпечують стійкість та сталий розвиток&lt;/h3&gt;" style="text;strokeColor=none;fillColor=none;align=left;verticalAlign=middle;spacingLeft=4;spacingRight=4;overflow=hidden;points=[[0,0.5],[1,0.5]];portConstraint=eastwest;rotatable=0;whiteSpace=wrap;html=1;" parent="dSjK24xe5P5FXWsLck4a-22" vertex="1">
          <mxGeometry y="70" width="140" height="70" as="geometry" />
        </mxCell>
        <mxCell id="dSjK24xe5P5FXWsLck4a-35" value="&lt;b&gt;&lt;font style=&quot;font-size: 14px;&quot;&gt;Екологія&lt;/font&gt;&lt;/b&gt;" style="text;strokeColor=none;fillColor=none;align=left;verticalAlign=middle;spacingLeft=4;spacingRight=4;overflow=hidden;points=[[0,0.5],[1,0.5]];portConstraint=eastwest;rotatable=0;whiteSpace=wrap;html=1;" parent="dSjK24xe5P5FXWsLck4a-22" vertex="1">
          <mxGeometry y="140" width="140" height="30" as="geometry" />
        </mxCell>
        <mxCell id="dSjK24xe5P5FXWsLck4a-31" value="&lt;h3 class=&quot;wp-block-heading&quot;&gt;економлять гроші та час&lt;/h3&gt;" style="text;strokeColor=none;fillColor=none;align=left;verticalAlign=middle;spacingLeft=4;spacingRight=4;overflow=hidden;points=[[0,0.5],[1,0.5]];portConstraint=eastwest;rotatable=0;whiteSpace=wrap;html=1;" parent="dSjK24xe5P5FXWsLck4a-22" vertex="1">
          <mxGeometry y="170" width="140" height="30" as="geometry" />
        </mxCell>
        <mxCell id="dSjK24xe5P5FXWsLck4a-25" value="&lt;h3 class=&quot;wp-block-heading&quot;&gt;Безпека&lt;/h3&gt;" style="text;strokeColor=none;fillColor=none;align=left;verticalAlign=middle;spacingLeft=4;spacingRight=4;overflow=hidden;points=[[0,0.5],[1,0.5]];portConstraint=eastwest;rotatable=0;whiteSpace=wrap;html=1;" parent="dSjK24xe5P5FXWsLck4a-22" vertex="1">
          <mxGeometry y="200" width="140" height="30" as="geometry" />
        </mxCell>
        <mxCell id="dSjK24xe5P5FXWsLck4a-33" value="https://futurenow.com.ua/shho-take-smart-tehnologiyi/" style="shape=parallelogram;perimeter=parallelogramPerimeter;whiteSpace=wrap;html=1;fixedSize=1;" parent="1" vertex="1">
          <mxGeometry x="550" y="50" width="200" height="60" as="geometry" />
        </mxCell>
        <mxCell id="dSjK24xe5P5FXWsLck4a-34" value="https://pedpsy.duan.edu.ua/images/PDF/2017/1/49.pdf" style="shape=parallelogram;perimeter=parallelogramPerimeter;whiteSpace=wrap;html=1;fixedSize=1;" parent="1" vertex="1">
          <mxGeometry x="330" y="50" width="210" height="60" as="geometry" />
        </mxCell>
        <mxCell id="dSjK24xe5P5FXWsLck4a-36" value="List" style="swimlane;fontStyle=0;childLayout=stackLayout;horizontal=1;startSize=30;horizontalStack=0;resizeParent=1;resizeParentMax=0;resizeLast=0;collapsible=1;marginBottom=0;whiteSpace=wrap;html=1;" parent="1" vertex="1">
          <mxGeometry x="390" y="320" width="140" height="150" as="geometry" />
        </mxCell>
        <mxCell id="dSjK24xe5P5FXWsLck4a-37" value="&lt;strong&gt;конфіденційності&lt;/strong&gt;" style="text;strokeColor=none;fillColor=none;align=left;verticalAlign=middle;spacingLeft=4;spacingRight=4;overflow=hidden;points=[[0,0.5],[1,0.5]];portConstraint=eastwest;rotatable=0;whiteSpace=wrap;html=1;" parent="dSjK24xe5P5FXWsLck4a-36" vertex="1">
          <mxGeometry y="30" width="140" height="30" as="geometry" />
        </mxCell>
        <mxCell id="dSjK24xe5P5FXWsLck4a-38" value="&lt;strong&gt;Витіснення робочих місць&lt;/strong&gt;" style="text;strokeColor=none;fillColor=none;align=left;verticalAlign=middle;spacingLeft=4;spacingRight=4;overflow=hidden;points=[[0,0.5],[1,0.5]];portConstraint=eastwest;rotatable=0;whiteSpace=wrap;html=1;" parent="dSjK24xe5P5FXWsLck4a-36" vertex="1">
          <mxGeometry y="60" width="140" height="30" as="geometry" />
        </mxCell>
        <mxCell id="dSjK24xe5P5FXWsLck4a-48" value="&lt;strong&gt;Етичні міркування&lt;/strong&gt;" style="text;strokeColor=none;fillColor=none;align=left;verticalAlign=middle;spacingLeft=4;spacingRight=4;overflow=hidden;points=[[0,0.5],[1,0.5]];portConstraint=eastwest;rotatable=0;whiteSpace=wrap;html=1;" parent="dSjK24xe5P5FXWsLck4a-36" vertex="1">
          <mxGeometry y="90" width="140" height="30" as="geometry" />
        </mxCell>
        <mxCell id="dSjK24xe5P5FXWsLck4a-39" value="&lt;strong&gt;Цифровий розрив&lt;/strong&gt;&lt;strong&gt;Цифровий розрив&lt;/strong&gt;" style="text;strokeColor=none;fillColor=none;align=left;verticalAlign=middle;spacingLeft=4;spacingRight=4;overflow=hidden;points=[[0,0.5],[1,0.5]];portConstraint=eastwest;rotatable=0;whiteSpace=wrap;html=1;" parent="dSjK24xe5P5FXWsLck4a-36" vertex="1">
          <mxGeometry y="120" width="140" height="30" as="geometry" />
        </mxCell>
      </root>
    </mxGraphModel>
  </diagram>
</mxfile>
